<?xml version="1.0" standalone="no"?><!DOCTYPE svg PUBLIC "-//W3C//DTD SVG 1.1//EN" "http://www.w3.org/Graphics/SVG/1.1/DTD/svg11.dtd"><svg t="1592150573287" class="icon" viewBox="0 0 1024 1024" version="1.1" xmlns="http://www.w3.org/2000/svg" p-id="1129" xmlns:xlink="http://www.w3.org/1999/xlink" width="200" height="200"><defs><style type="text/css"></style></defs><path d="M783.969295 0.040105a111.995614 111.995614 0 0 1 31.401436 219.511403l-31.998746 200.120162a111.995614 111.995614 0 1 1-167.118788 134.650726l-123.045848-6.805067a79.996867 79.996867 0 1 1-98.065492-122.533868l10.964904-65.704093a79.996867 79.996867 0 1 1 94.71629 15.786049l-10.964904 65.704093c3.199875 3.370535 6.101094 6.997059 8.682327 10.879574l123.045847 6.826399a112.272936 112.272936 0 0 1 66.984043-53.971219l31.998747-200.120162A112.464928 112.464928 0 0 1 682.746592 160.033839h-341.53329a112.294268 112.294268 0 0 1-70.055922 59.602999L213.111653 577.660148a144.07969 144.07969 0 0 1 73.831775 108.945067l438.425495 97.425517a159.993734 159.993734 0 1 1-20.799185 93.713663l-438.446828-97.425517a143.99436 143.99436 0 1 1-147.770212-218.018128L176.419757 204.234774A111.995614 111.995614 0 1 1 341.213302 64.037599h341.53329a111.995614 111.995614 0 0 1 101.222703-63.997494z" fill="#7dc5eb" p-id="1130"></path></svg>